<?xml version="1.0" standalone="no"?>
<!DOCTYPE svg PUBLIC "-//W3C//DTD SVG 20010904//EN"
 "http://www.w3.org/TR/2001/REC-SVG-20010904/DTD/svg10.dtd">
<svg version="1.0" xmlns="http://www.w3.org/2000/svg"
 width="700.000000pt" height="700.000000pt" viewBox="0 0 700.000000 700.000000"
 preserveAspectRatio="xMidYMid meet">
<metadata>
Created by potrace 1.14, written by Peter Selinger 2001-2017
</metadata>
<g transform="translate(0.000000,700.000000) scale(0.100000,-0.100000)"
fill="#000000" stroke="none">
<path d="M2210 6981 c-75 -24 -107 -42 -163 -91 -63 -55 -101 -112 -128 -191
-21 -63 -22 -74 -23 -609 l-1 -545 -391 -2 c-261 -1 -405 -5 -435 -13 -119
-31 -224 -109 -278 -205 -65 -116 -61 68 -61 -2555 0 -1572 4 -2400 11 -2429
35 -153 162 -285 314 -326 41 -11 462 -14 2440 -14 1574 0 2405 3 2434 10 161
37 297 175 331 336 7 32 10 839 8 2453 l-3 2405 -24 58 c-48 119 -159 220
-283 258 -62 19 -96 21 -460 22 l-393 2 -1 540 c0 297 -4 550 -8 562 -4 12 -8
30 -10 40 -25 125 -179 269 -326 302 -29 7 -470 10 -1270 10 -1144 0 -1229 -1
-1280 -18z m2310 -643 c0 -43 0 -476 0 -963 0 -487 0 -911 0 -943 l0 -57
-1014 0 c-558 0 -1017 3 -1021 6 -7 8 -8 2015 -1 2027 3 5 462 8 1021 8 l1015
0 0 -78z m-2640 -1384 c14 -3 16 -49 15 -366 0 -200 3 -390 7 -423 22 -170
154 -313 333 -361 75 -20 2456 -20 2532 0 156 41 274 153 318 302 16 52 18
108 19 454 l1 395 292 1 292 1 -2 -2186 -2 -2186 -727 -1 -728 -1 0 803 0 803
-730 0 -730 -1 0 -802 0 -802 -729 0 -728 0 0 2187 0 2187 276 0 c152 0 283
-1 291 -4z"/>
<path d="M3210 5908 l0 -218 -27 -1 c-16 0 -115 -1 -220 -1 l-193 0 0 -292 0
-292 208 1 c114 1 213 -1 220 -3 9 -3 12 -56 12 -218 0 -118 3 -214 8 -215 28
-3 550 -4 560 -1 9 3 12 55 12 217 0 194 2 213 18 217 9 2 108 4 220 3 l202
-1 0 292 0 292 -167 0 c-93 0 -192 1 -220 1 l-53 1 0 218 0 217 -290 0 -290 0
0 -217z"/>
</g>
</svg>
